<?xml version="1.0" encoding="UTF-8"?>
<!DOCTYPE svg  PUBLIC '-//W3C//DTD SVG 20010904//EN'  'http://www.w3.org/TR/2001/REC-SVG-20010904/DTD/svg10.dtd'>
<svg width="700pt" height="700pt" version="1.0" viewBox="0 0 700 700" xmlns="http://www.w3.org/2000/svg">
    <metadata>Created by potrace 1.14, written by Peter Selinger 2001-2017</metadata>
    <g transform="translate(0 700) scale(.1 -.1)">
        <path d="m2188 6050c-275-56-488-275-542-556-10-57-13-309-11-1315 1-684 5-1257 9-1274 42-184 144-345 276-435 19-13 37-27 40-30 14-15 143-70 205-86 65-17 130-18 985-20 693 0 926 2 962 11 93 25 155 62 240 143 203 196 910 910 932 942 37 56 65 123 74 184 5 31 8 460 8 954-2 835-3 902-20 967-66 253-258 445-511 511-66 17-142 18-1316 20-1143 1-1253-1-1331-16zm2583-230c170-40 310-180 349-350 10-41 13-244 12-870 0-448-1-826-1-841l-1-25h-356c-219 1-383-3-423-10-157-27-299-144-354-294-28-76-32-143-32-507 1-311-1-353-15-354-8 0-389-1-845-1-758-1-835 1-890 16-166 49-277 158-327 320-21 70-21 76-21 1296v1226l21 71c58 189 209 313 407 331 39 4 599 7 1246 6 916-1 1188-4 1230-14zm-151-2735-415-415-3 87c-2 49-2 196 0 328 3 227 4 243 26 287 25 51 75 94 131 114 26 10 122 13 356 14h320l-415-415z"/>
        <path d="m2666 5129c-105-17-134-154-44-209 32-20 48-20 876-20 911 0 879-2 916 52 18 26 21 86 5 121-6 13-25 32-42 42-30 18-72 19-853 19-451 1-838-2-858-5z"/>
        <path d="m2652 4428c-94-25-113-157-30-208 32-20 48-20 876-20 914 0 879-2 916 54 9 14 16 44 16 67 0 33-6 47-34 75-22 22-44 34-62 35-150 5-1661 2-1682-3z"/>
    </g>
</svg>
